<?xml version="1.0" encoding="UTF-8"?>
<svg xmlns="http://www.w3.org/2000/svg" xmlns:xlink="http://www.w3.org/1999/xlink" width="2000" height="2000" viewBox="0 0 2000 2000" fill="currentColor">

<path fill-rule="evenodd" fill="currentColor" fill-opacity="1" d="M 1757.980469 1915.15625 L 1738.929688 1915.15625 C 1738.050781 1915.15625 1737.328125 1915.871094 1737.328125 1916.746094 L 1737.328125 1935.800781 C 1737.328125 1936.679688 1738.050781 1937.394531 1738.929688 1937.394531 L 1757.980469 1937.394531 C 1758.859375 1937.394531 1759.570312 1936.679688 1759.570312 1935.800781 L 1759.570312 1916.746094 C 1759.570312 1915.871094 1758.859375 1915.15625 1757.980469 1915.15625 "/>
<path fill-rule="evenodd" fill="currentColor" fill-opacity="1" d="M 1715.03125 1916.171875 L 1696.839844 1916.171875 C 1696.011719 1916.171875 1695.320312 1916.855469 1695.320312 1917.691406 L 1695.320312 1935.875 C 1695.320312 1936.710938 1696.011719 1937.394531 1696.839844 1937.394531 L 1715.03125 1937.394531 C 1715.859375 1937.394531 1716.539062 1936.710938 1716.539062 1935.875 L 1716.539062 1917.691406 C 1716.539062 1916.855469 1715.859375 1916.171875 1715.03125 1916.171875 "/>
<path fill-rule="evenodd" fill="currentColor" fill-opacity="1" d="M 1672.070312 1917.1875 L 1654.761719 1917.1875 C 1653.960938 1917.1875 1653.308594 1917.839844 1653.308594 1918.636719 L 1653.308594 1935.949219 C 1653.308594 1936.742188 1653.960938 1937.394531 1654.761719 1937.394531 L 1672.070312 1937.394531 C 1672.871094 1937.394531 1673.519531 1936.742188 1673.519531 1935.949219 L 1673.519531 1918.636719 C 1673.519531 1917.839844 1672.871094 1917.1875 1672.070312 1917.1875 "/>
<path fill-rule="evenodd" fill="currentColor" fill-opacity="1" d="M 1629.109375 1918.207031 L 1612.671875 1918.207031 C 1611.921875 1918.207031 1611.300781 1918.824219 1611.300781 1919.582031 L 1611.300781 1936.019531 C 1611.300781 1936.777344 1611.921875 1937.394531 1612.671875 1937.394531 L 1629.109375 1937.394531 C 1629.871094 1937.394531 1630.488281 1936.777344 1630.488281 1936.019531 L 1630.488281 1919.582031 C 1630.488281 1918.824219 1629.871094 1918.207031 1629.109375 1918.207031 "/>
<path fill-rule="evenodd" fill="currentColor" fill-opacity="1" d="M 1586.160156 1919.222656 L 1570.589844 1919.222656 C 1569.871094 1919.222656 1569.289062 1919.808594 1569.289062 1920.523438 L 1569.289062 1936.09375 C 1569.289062 1936.808594 1569.871094 1937.394531 1570.589844 1937.394531 L 1586.160156 1937.394531 C 1586.871094 1937.394531 1587.460938 1936.808594 1587.460938 1936.09375 L 1587.460938 1920.523438 C 1587.460938 1919.808594 1586.871094 1919.222656 1586.160156 1919.222656 "/>
<path fill-rule="evenodd" fill="currentColor" fill-opacity="1" d="M 1543.199219 1920.238281 L 1528.5 1920.238281 C 1527.828125 1920.238281 1527.28125 1920.792969 1527.28125 1921.46875 L 1527.28125 1936.167969 C 1527.28125 1936.84375 1527.828125 1937.394531 1528.5 1937.394531 L 1543.199219 1937.394531 C 1543.878906 1937.394531 1544.429688 1936.84375 1544.429688 1936.167969 L 1544.429688 1921.46875 C 1544.429688 1920.792969 1543.878906 1920.238281 1543.199219 1920.238281 "/>
<path fill-rule="evenodd" fill="currentColor" fill-opacity="1" d="M 1500.25 1921.257812 L 1486.421875 1921.257812 C 1485.78125 1921.257812 1485.261719 1921.777344 1485.261719 1922.414062 L 1485.261719 1936.238281 C 1485.261719 1936.875 1485.78125 1937.394531 1486.421875 1937.394531 L 1500.25 1937.394531 C 1500.878906 1937.394531 1501.398438 1936.875 1501.398438 1936.238281 L 1501.398438 1922.414062 C 1501.398438 1921.777344 1500.878906 1921.257812 1500.25 1921.257812 "/>
<path fill-rule="evenodd" fill="currentColor" fill-opacity="1" d="M 1457.289062 1922.273438 L 1444.328125 1922.273438 C 1443.738281 1922.273438 1443.25 1922.761719 1443.25 1923.355469 L 1443.25 1936.3125 C 1443.25 1936.90625 1443.738281 1937.394531 1444.328125 1937.394531 L 1457.289062 1937.394531 C 1457.890625 1937.394531 1458.371094 1936.90625 1458.371094 1936.3125 L 1458.371094 1923.355469 C 1458.371094 1922.761719 1457.890625 1922.273438 1457.289062 1922.273438 "/>
<path fill-rule="evenodd" fill="currentColor" fill-opacity="1" d="M 1414.328125 1923.292969 L 1402.25 1923.292969 C 1401.691406 1923.292969 1401.238281 1923.746094 1401.238281 1924.300781 L 1401.238281 1936.386719 C 1401.238281 1936.941406 1401.691406 1937.394531 1402.25 1937.394531 L 1414.328125 1937.394531 C 1414.890625 1937.394531 1415.339844 1936.941406 1415.339844 1936.386719 L 1415.339844 1924.300781 C 1415.339844 1923.746094 1414.890625 1923.292969 1414.328125 1923.292969 "/>
<path fill-rule="evenodd" fill="currentColor" fill-opacity="1" d="M 1371.378906 1924.308594 L 1360.171875 1924.308594 C 1359.648438 1924.308594 1359.230469 1924.730469 1359.230469 1925.246094 L 1359.230469 1936.457031 C 1359.230469 1936.972656 1359.648438 1937.394531 1360.171875 1937.394531 L 1371.378906 1937.394531 C 1371.890625 1937.394531 1372.308594 1936.972656 1372.308594 1936.457031 L 1372.308594 1925.246094 C 1372.308594 1924.730469 1371.890625 1924.308594 1371.378906 1924.308594 "/>
<path fill-rule="evenodd" fill="currentColor" fill-opacity="1" d="M 1328.421875 1925.324219 L 1318.078125 1925.324219 C 1317.609375 1925.324219 1317.21875 1925.714844 1317.21875 1926.1875 L 1317.21875 1936.53125 C 1317.21875 1937.007812 1317.609375 1937.394531 1318.078125 1937.394531 L 1328.421875 1937.394531 C 1328.898438 1937.394531 1329.289062 1937.007812 1329.289062 1936.53125 L 1329.289062 1926.1875 C 1329.289062 1925.714844 1328.898438 1925.324219 1328.421875 1925.324219 "/>
<path fill-rule="evenodd" fill="currentColor" fill-opacity="1" d="M 1285.46875 1926.34375 L 1276 1926.34375 C 1275.558594 1926.34375 1275.210938 1926.699219 1275.210938 1927.132812 L 1275.210938 1936.601562 C 1275.210938 1937.039062 1275.558594 1937.394531 1276 1937.394531 L 1285.46875 1937.394531 C 1285.898438 1937.394531 1286.261719 1937.039062 1286.261719 1936.601562 L 1286.261719 1927.132812 C 1286.261719 1926.699219 1285.898438 1926.34375 1285.46875 1926.34375 "/>
<path fill-rule="evenodd" fill="currentColor" fill-opacity="1" d="M 1242.511719 1927.359375 L 1233.910156 1927.359375 C 1233.519531 1927.359375 1233.191406 1927.683594 1233.191406 1928.078125 L 1233.191406 1936.675781 C 1233.191406 1937.070312 1233.519531 1937.394531 1233.910156 1937.394531 L 1242.511719 1937.394531 C 1242.910156 1937.394531 1243.230469 1937.070312 1243.230469 1936.675781 L 1243.230469 1928.078125 C 1243.230469 1927.683594 1242.910156 1927.359375 1242.511719 1927.359375 "/>
<path fill-rule="evenodd" fill="currentColor" fill-opacity="1" d="M 1199.550781 1928.375 L 1191.828125 1928.375 C 1191.46875 1928.375 1191.179688 1928.667969 1191.179688 1929.023438 L 1191.179688 1936.75 C 1191.179688 1937.105469 1191.46875 1937.394531 1191.828125 1937.394531 L 1199.550781 1937.394531 C 1199.910156 1937.394531 1200.199219 1937.105469 1200.199219 1936.75 L 1200.199219 1929.023438 C 1200.199219 1928.667969 1199.910156 1928.375 1199.550781 1928.375 "/>
<path fill-rule="evenodd" fill="currentColor" fill-opacity="1" d="M 1156.601562 1929.394531 L 1149.738281 1929.394531 C 1149.429688 1929.394531 1149.171875 1929.652344 1149.171875 1929.964844 L 1149.171875 1936.820312 C 1149.171875 1937.136719 1149.429688 1937.394531 1149.738281 1937.394531 L 1156.601562 1937.394531 C 1156.910156 1937.394531 1157.171875 1937.136719 1157.171875 1936.820312 L 1157.171875 1929.964844 C 1157.171875 1929.652344 1156.910156 1929.394531 1156.601562 1929.394531 "/>
<path fill-rule="evenodd" fill="currentColor" fill-opacity="1" d="M 1113.640625 1930.410156 L 1107.660156 1930.410156 C 1107.378906 1930.410156 1107.160156 1930.636719 1107.160156 1930.910156 L 1107.160156 1936.894531 C 1107.160156 1937.167969 1107.378906 1937.394531 1107.660156 1937.394531 L 1113.640625 1937.394531 C 1113.921875 1937.394531 1114.140625 1937.167969 1114.140625 1936.894531 L 1114.140625 1930.910156 C 1114.140625 1930.636719 1113.921875 1930.410156 1113.640625 1930.410156 "/>
<path fill-rule="nonzero" fill="currentColor" fill-opacity="1" d="M 946.777344 1951.648438 L 1937.160156 1951.648438 L 1939.011719 1955.011719 L 946.777344 1955.011719 L 946.777344 1951.648438 "/>
<path fill-rule="evenodd" fill="currentColor" fill-opacity="1" d="M 1791.488281 1936.132812 L 1808 1936.222656 L 1820.910156 1914.300781 L 1853.320312 1858.628906 L 1860.148438 1846.515625 L 1864.050781 1853.269531 L 1816.570312 1936.132812 L 1855.949219 1936.15625 L 1871.140625 1907.691406 L 1880.691406 1889.570312 L 1873.539062 1877.148438 L 1852.53125 1912.152344 L 1845.441406 1923.910156 L 1838.46875 1923.894531 L 1852.839844 1898.082031 L 1879.109375 1852.347656 L 1861.140625 1821.273438 L 1857.148438 1827.648438 L 1808.78125 1907.320312 L 1791.488281 1936.132812 "/>
<path fill-rule="evenodd" fill="currentColor" fill-opacity="1" d="M 1863.96875 1935.761719 L 1879.480469 1935.773438 L 1894.320312 1906.464844 L 1902.890625 1920.917969 L 1911.679688 1935.703125 L 1927.25 1935.777344 L 1893.03125 1876.519531 L 1889.628906 1883.472656 L 1885.929688 1891.058594 L 1878.519531 1906.191406 L 1863.96875 1935.761719 "/>
<path fill-rule="evenodd" fill="currentColor" fill-opacity="1" d="M 1882.839844 1885.820312 L 1890.839844 1872.714844 L 1883.480469 1859.96875 L 1875.839844 1873.675781 L 1882.839844 1885.820312 "/>
<path fill-rule="evenodd" fill="rgb(14.924622%, 19.221497%, 24.308777%)" fill-opacity="1" d="M 1507.410156 855.859375 L 1394.089844 855.859375 C 1421.671875 941.851562 1398.929688 1049.441406 1291.011719 1049.441406 C 1183.011719 1049.441406 1153.46875 941.941406 1181.011719 855.859375 L 818.976562 855.859375 C 846.523438 941.941406 823.910156 1049.441406 715.902344 1049.441406 C 607.894531 1049.441406 578.351562 941.941406 605.898438 855.859375 L 492.539062 855.859375 C 464.535156 855.859375 441.792969 833.199219 441.792969 805.128906 C 441.792969 777.109375 464.519531 754.390625 492.539062 754.390625 L 1507.410156 754.390625 C 1535.460938 754.390625 1558.128906 777.109375 1558.128906 805.128906 C 1558.128906 833.179688 1535.441406 855.859375 1507.410156 855.859375 Z M 1394.679688 1488.949219 C 1384.761719 1498.832031 1371.800781 1503.808594 1358.808594 1503.808594 C 1345.820312 1503.808594 1332.828125 1498.84375 1322.941406 1488.949219 C 1144.828125 1310.9375 855.136719 1310.9375 677.039062 1488.949219 C 657.246094 1508.785156 625.128906 1508.785156 605.277344 1488.949219 C 585.5 1469.101562 585.5 1437.039062 605.277344 1417.1875 C 822.917969 1199.5625 1177.039062 1199.5625 1394.679688 1417.1875 C 1414.511719 1437.039062 1414.480469 1469.101562 1394.679688 1488.949219 Z M 999.980469 188.160156 C 551.65625 188.160156 188.078125 551.679688 188.078125 1000.046875 C 188.078125 1448.445312 551.640625 1811.921875 999.96875 1811.921875 C 1448.378906 1811.921875 1811.839844 1448.460938 1811.839844 1000.046875 C 1811.839844 551.679688 1448.359375 188.160156 999.980469 188.160156 "/>
</svg>
